<svg width="25" height="25" viewBox="0 0 25 25" fill="none" xmlns="http://www.w3.org/2000/svg">
<path d="M11.0416 21.6146C10.7464 21.6146 10.4992 21.5035 10.2999 21.2812C10.0999 21.0598 9.99992 20.7851 9.99992 20.4572C9.99992 20.3221 10.026 20.1821 10.078 20.037C10.1301 19.8927 10.2083 19.7627 10.3124 19.647L15.1301 14.294L14.3749 13.4549L9.58325 18.8079C9.47909 18.9236 9.36624 19.0104 9.24471 19.0683C9.12318 19.1262 8.99298 19.1551 8.85409 19.1551C8.55895 19.1551 8.31172 19.044 8.11242 18.8218C7.91242 18.6003 7.81242 18.3256 7.81242 17.9977C7.81242 17.8048 7.83846 17.6454 7.89054 17.5197C7.94263 17.3947 8.01207 17.2839 8.09888 17.1875L12.9166 11.8345L12.1874 11.0243L7.36971 16.3484C7.26554 16.4641 7.1527 16.5509 7.03117 16.6088C6.90964 16.6667 6.77075 16.6956 6.6145 16.6956C6.33672 16.6956 6.09367 16.5799 5.88534 16.3484C5.677 16.1169 5.57284 15.8468 5.57284 15.5382C5.57284 15.3839 5.59888 15.2392 5.65096 15.1042C5.70304 14.9691 5.78117 14.8438 5.88534 14.728L10.703 9.375L9.94784 8.56482L5.15617 13.9178C5.06936 14.0143 4.9652 14.0914 4.84367 14.1493C4.72214 14.2072 4.57457 14.2361 4.40096 14.2361C4.10582 14.2361 3.8586 14.125 3.65929 13.9028C3.45929 13.6813 3.35929 13.4066 3.35929 13.0787C3.35929 12.9244 3.38534 12.7797 3.43742 12.6447C3.4895 12.5096 3.56763 12.3843 3.67179 12.2685L9.47909 5.81597L13.3853 10.1852C13.5763 10.3974 13.802 10.566 14.0624 10.691C14.3228 10.8167 14.5833 10.8796 14.8437 10.8796C15.3992 10.8796 15.8853 10.6624 16.302 10.228C16.7187 9.79437 16.927 9.23997 16.927 8.56482C16.927 8.29475 16.8836 8.01505 16.7968 7.72569C16.71 7.43634 16.5537 7.16628 16.328 6.91551L11.6666 1.73611C11.9617 1.42747 12.2916 1.19097 12.6562 1.02662C13.0208 0.86304 13.3853 0.78125 13.7499 0.78125C14.2013 0.78125 14.618 0.86304 14.9999 1.02662C15.3819 1.19097 15.7291 1.44676 16.0416 1.79398L20.4426 6.71296C20.7551 7.06018 20.9853 7.44599 21.1333 7.87037C21.2805 8.29475 21.3541 8.78665 21.3541 9.34606C21.3541 9.73187 21.276 10.1223 21.1197 10.5174C20.9635 10.9132 20.7378 11.2751 20.4426 11.603L11.7708 21.2674C11.6319 21.4217 11.5103 21.5181 11.4062 21.5567C11.302 21.5953 11.1805 21.6146 11.0416 21.6146ZM2.10929 12.3553L1.43221 11.603C1.13707 11.2944 0.911377 10.9279 0.755127 10.5035C0.598877 10.0791 0.520752 9.63542 0.520752 9.17245C0.520752 8.67091 0.607558 8.20795 0.781169 7.78357C0.95478 7.35918 1.17179 7.00231 1.43221 6.71296L5.83325 1.79398C6.11103 1.48534 6.44089 1.2392 6.82284 1.05556C7.20478 0.872685 7.57804 0.78125 7.94263 0.78125C8.41138 0.78125 8.82804 0.853781 9.19263 0.998843C9.55721 1.14313 9.91311 1.40818 10.2603 1.79398L15.5989 7.72569C15.703 7.84143 15.7812 7.96682 15.8333 8.10185C15.8853 8.23688 15.9114 8.38156 15.9114 8.53588C15.9114 8.84452 15.8072 9.11458 15.5989 9.34606C15.3905 9.57755 15.1475 9.69329 14.8697 9.69329C14.7135 9.69329 14.5833 9.66898 14.4791 9.62037C14.3749 9.57253 14.2621 9.4811 14.1405 9.34606L9.45304 4.1956L2.10929 12.3553Z" fill="black"/>
</svg>
