<svg width="27" height="27" viewBox="0 0 27 27" fill="none" xmlns="http://www.w3.org/2000/svg">
<g clip-path="url(#clip0_1_3596)">
<path d="M12.375 20.25H14.625V18H12.375V20.25ZM13.5 2.25C7.29 2.25 2.25 7.29 2.25 13.5C2.25 19.71 7.29 24.75 13.5 24.75C19.71 24.75 24.75 19.71 24.75 13.5C24.75 7.29 19.71 2.25 13.5 2.25ZM13.5 22.5C8.53875 22.5 4.5 18.4613 4.5 13.5C4.5 8.53875 8.53875 4.5 13.5 4.5C18.4613 4.5 22.5 8.53875 22.5 13.5C22.5 18.4613 18.4613 22.5 13.5 22.5ZM13.5 6.75C11.0138 6.75 9 8.76375 9 11.25H11.25C11.25 10.0125 12.2625 9 13.5 9C14.7375 9 15.75 10.0125 15.75 11.25C15.75 13.5 12.375 13.2188 12.375 16.875H14.625C14.625 14.3438 18 14.0625 18 11.25C18 8.76375 15.9862 6.75 13.5 6.75Z" fill="black"/>
</g>
<defs>
<clipPath id="clip0_1_3596">
<rect width="27" height="27" fill="white"/>
</clipPath>
</defs>
</svg>
