<svg width="26" height="26" viewBox="0 0 26 26" fill="none" xmlns="http://www.w3.org/2000/svg">
<path d="M5.57975 24.9167C4.93907 24.9167 4.39041 24.6811 3.93378 24.2101C3.47793 23.7382 3.25 23.1713 3.25 22.5093V5.65741C3.25 4.99537 3.47793 4.42843 3.93378 3.95657C4.39041 3.48552 4.93907 3.25 5.57975 3.25H21.888C22.5287 3.25 23.0773 3.48552 23.534 3.95657C23.9898 4.42843 24.2177 4.99537 24.2177 5.65741V6.86111C24.2177 7.20216 24.1059 7.48824 23.8823 7.71935C23.6594 7.94966 23.3829 8.06481 23.0529 8.06481C22.7228 8.06481 22.4464 7.94966 22.2235 7.71935C21.9998 7.48824 21.888 7.20216 21.888 6.86111V5.65741H5.57975V22.5093H21.888V21.3056C21.888 20.9645 21.9998 20.6788 22.2235 20.4485C22.4464 20.2174 22.7228 20.1019 23.0529 20.1019C23.3829 20.1019 23.6594 20.2174 23.8823 20.4485C24.1059 20.6788 24.2177 20.9645 24.2177 21.3056V22.5093C24.2177 23.1713 23.9898 23.7382 23.534 24.2101C23.0773 24.6811 22.5287 24.9167 21.888 24.9167H5.57975ZM20.927 15.287H11.4041C11.0741 15.287 10.7976 15.1715 10.5747 14.9404C10.3511 14.7101 10.2392 14.4244 10.2392 14.0833C10.2392 13.7423 10.3511 13.4562 10.5747 13.2251C10.7976 12.9948 11.0741 12.8796 11.4041 12.8796H20.927L18.7428 10.5926C18.5293 10.3719 18.4178 10.0959 18.4085 9.76444C18.3984 9.43383 18.5099 9.14815 18.7428 8.90741C18.9564 8.68673 19.2282 8.57639 19.5582 8.57639C19.8883 8.57639 20.1601 8.68673 20.3737 8.90741L24.5672 13.2407C24.8002 13.4815 24.9167 13.7623 24.9167 14.0833C24.9167 14.4043 24.8002 14.6852 24.5672 14.9259L20.3737 19.2593C20.1601 19.4799 19.8933 19.5951 19.5734 19.6047C19.2527 19.6152 18.9758 19.5 18.7428 19.2593C18.5293 19.0386 18.4225 18.7577 18.4225 18.4167C18.4225 18.0756 18.5293 17.7948 18.7428 17.5741L20.927 15.287Z" fill="black"/>
</svg>
