<svg width="28" height="28" viewBox="0 0 28 28" fill="none" xmlns="http://www.w3.org/2000/svg">
<g clip-path="url(#clip0_1_3611)">
<path d="M22.3298 15.0965C22.3765 14.7465 22.3998 14.3848 22.3998 13.9998C22.3998 13.6265 22.3765 13.2531 22.3181 12.9031L24.6865 11.0598C24.8965 10.8965 24.9548 10.5815 24.8265 10.3481L22.5865 6.47481C22.4465 6.21814 22.1548 6.13647 21.8981 6.21814L19.1098 7.33814C18.5265 6.8948 17.9081 6.52147 17.2198 6.24147L16.7998 3.27814C16.7531 2.99814 16.5198 2.7998 16.2398 2.7998H11.7598C11.4798 2.7998 11.2581 2.99814 11.2115 3.27814L10.7915 6.24147C10.1031 6.52147 9.47314 6.90647 8.90147 7.33814L6.11314 6.21814C5.85647 6.1248 5.5648 6.21814 5.4248 6.47481L3.19647 10.3481C3.05647 10.5931 3.10314 10.8965 3.33647 11.0598L5.7048 12.9031C5.64647 13.2531 5.5998 13.6381 5.5998 13.9998C5.5998 14.3615 5.62314 14.7465 5.68147 15.0965L3.31314 16.9398C3.10314 17.1031 3.0448 17.4181 3.17314 17.6515L5.41314 21.5248C5.55314 21.7815 5.8448 21.8631 6.10147 21.7815L8.8898 20.6615C9.47314 21.1048 10.0915 21.4781 10.7798 21.7581L11.1998 24.7215C11.2581 25.0015 11.4798 25.1998 11.7598 25.1998H16.2398C16.5198 25.1998 16.7531 25.0015 16.7881 24.7215L17.2081 21.7581C17.8965 21.4781 18.5265 21.1048 19.0981 20.6615L21.8865 21.7815C22.1431 21.8748 22.4348 21.7815 22.5748 21.5248L24.8148 17.6515C24.9548 17.3948 24.8965 17.1031 24.6748 16.9398L22.3298 15.0965ZM13.9998 18.1998C11.6898 18.1998 9.7998 16.3098 9.7998 13.9998C9.7998 11.6898 11.6898 9.7998 13.9998 9.7998C16.3098 9.7998 18.1998 11.6898 18.1998 13.9998C18.1998 16.3098 16.3098 18.1998 13.9998 18.1998Z" fill="black"/>
</g>
<defs>
<clipPath id="clip0_1_3611">
<rect width="28" height="28" fill="white"/>
</clipPath>
</defs>
</svg>
