<svg width="21" height="21" viewBox="0 0 21 21" fill="none" xmlns="http://www.w3.org/2000/svg">
<path d="M7.35 10.2375C6.6255 10.2375 6.0375 10.8255 6.0375 11.55C6.0375 12.2745 6.6255 12.8625 7.35 12.8625C8.0745 12.8625 8.6625 12.2745 8.6625 11.55C8.6625 10.8255 8.0745 10.2375 7.35 10.2375ZM13.65 10.2375C12.9255 10.2375 12.3375 10.8255 12.3375 11.55C12.3375 12.2745 12.9255 12.8625 13.65 12.8625C14.3745 12.8625 14.9625 12.2745 14.9625 11.55C14.9625 10.8255 14.3745 10.2375 13.65 10.2375ZM10.5 0C4.704 0 0 4.704 0 10.5C0 16.296 4.704 21 10.5 21C16.296 21 21 16.296 21 10.5C21 4.704 16.296 0 10.5 0ZM10.5 18.9C5.8695 18.9 2.1 15.1305 2.1 10.5C2.1 10.1955 2.121 9.891 2.1525 9.597C4.6305 8.4945 6.594 6.468 7.623 3.9585C9.5235 6.6465 12.6525 8.4 16.191 8.4C17.01 8.4 17.7975 8.3055 18.5535 8.127C18.774 8.8725 18.9 9.6705 18.9 10.5C18.9 15.1305 15.1305 18.9 10.5 18.9Z" fill="black"/>
</svg>
