<svg width="68" height="68" viewBox="0 0 68 68" fill="none" xmlns="http://www.w3.org/2000/svg">
<g filter="url(#filter0_d_1_99)">
<rect x="4" width="60" height="60" rx="30" fill="#FEE500"/>
<path d="M34 15C25.7155 15 19 20.7381 19 27.8172C19 30.3871 19.8857 32.7801 21.4102 34.786C23.5679 37.6251 24.9854 41.0331 24.505 44.5666C24.505 44.5666 24.475 44.8413 24.64 44.947C24.6953 44.9775 24.7559 44.9953 24.8178 44.9992C24.9412 45.007 25.0593 44.9574 25.1685 44.8995C25.7821 44.5745 27.6615 43.1987 29.2088 42.0415C30.5756 41.0193 32.2932 40.6343 34 40.6329C42.2845 40.6329 49 34.8948 49 27.8172C49 20.7397 42.2845 15 34 15ZM26.572 31.395C26.559 31.6342 26.4622 31.859 26.3013 32.0234C26.1404 32.1878 25.9276 32.2793 25.7065 32.2793C25.4854 32.2793 25.2726 32.1878 25.1117 32.0234C24.9509 31.859 24.854 31.6342 24.841 31.395V27.1744C24.841 26.4288 24.2366 25.8244 23.491 25.8244C23.3797 25.8244 23.2695 25.8006 23.1667 25.7544C23.0639 25.7083 22.9704 25.6406 22.8917 25.5554C22.813 25.4701 22.7506 25.3688 22.708 25.2574C22.6654 25.146 22.6435 25.0265 22.6435 24.9059C22.6435 24.7853 22.6654 24.6659 22.708 24.5545C22.7506 24.443 22.813 24.3418 22.8917 24.2565C22.9704 24.1712 23.0639 24.1036 23.1667 24.0574C23.2695 24.0113 23.3797 23.9875 23.491 23.9875H27.922C28.1468 23.9875 28.3623 24.0843 28.5213 24.2565C28.6802 24.4288 28.7695 24.6624 28.7695 24.9059C28.7695 25.1495 28.6802 25.3831 28.5213 25.5554C28.3623 25.7276 28.1468 25.8244 27.922 25.8244C27.1764 25.8244 26.572 26.4288 26.572 27.1744V31.395ZM33.8477 32.1493C33.8463 32.1493 33.8448 32.1496 33.8435 32.1502C33.6713 32.2351 33.4842 32.2785 33.295 32.2777C33.1504 32.2976 33.0036 32.2686 32.8747 32.1947C32.7459 32.1208 32.6412 32.0056 32.575 31.8648C32.3179 31.1362 31.6293 30.6489 30.8566 30.6489H30.7969C30.0242 30.6489 29.3356 31.1362 29.0785 31.8648C29.0123 32.0056 28.9076 32.1208 28.7788 32.1947C28.6499 32.2686 28.5031 32.2976 28.3585 32.2777C28.1691 32.2784 27.9818 32.2345 27.8095 32.1493C27.571 32.029 27.3415 31.7022 27.604 30.818L29.674 24.9124C29.7458 24.641 29.8972 24.4023 30.1053 24.2324C30.3134 24.0624 30.5669 23.9705 30.8275 23.9705C31.0881 23.9705 31.3416 24.0624 31.5497 24.2324C31.7578 24.4023 31.9092 24.641 31.981 24.9124L34.0495 30.8131C34.3127 31.6997 34.0853 32.0287 33.852 32.1482C33.8507 32.1489 33.8492 32.1493 33.8477 32.1493ZM38.2195 32.1517C38.2195 32.1504 38.2184 32.1493 38.2171 32.1493H35.443C35.2279 32.1541 35.0198 32.0662 34.8643 31.9051C34.7088 31.7439 34.6186 31.5225 34.6135 31.2894V24.9254C34.6135 24.6715 34.7066 24.428 34.8723 24.2484C35.038 24.0689 35.2627 23.968 35.497 23.968C35.7313 23.968 35.956 24.0689 36.1217 24.2484C36.2874 24.428 36.3805 24.6715 36.3805 24.9254V28.5953C36.3805 29.611 37.2038 30.4343 38.2195 30.4343C38.4299 30.4343 38.6318 30.5249 38.7806 30.6862C38.9294 30.8475 39.013 31.0662 39.013 31.2942C39.013 31.5223 38.9294 31.741 38.7806 31.9023C38.6324 32.0629 38.4315 32.1534 38.2219 32.1541C38.2206 32.1541 38.2195 32.153 38.2195 32.1517ZM44.659 32.0639C44.6582 32.0626 44.6565 32.0623 44.6553 32.0633C44.5062 32.1857 44.324 32.2514 44.137 32.25C44.0029 32.2507 43.8706 32.2174 43.7505 32.1528C43.6304 32.0882 43.526 31.994 43.4455 31.8778L41.6084 29.2395C41.5096 29.0977 41.3049 29.0836 41.1877 29.2107C41.1416 29.2606 41.116 29.3261 41.116 29.3941V31.3349C41.116 31.5836 41.0248 31.8222 40.8625 31.9981C40.7002 32.174 40.48 32.2728 40.2505 32.2728C40.021 32.2728 39.8008 32.174 39.6385 31.9981C39.4762 31.8222 39.385 31.5836 39.385 31.3349V24.9254C39.385 24.6767 39.4762 24.4381 39.6385 24.2622C39.8008 24.0863 40.021 23.9875 40.2505 23.9875C40.48 23.9875 40.7002 24.0863 40.8625 24.2622C41.0248 24.4381 41.116 24.6767 41.116 24.9254C41.116 25.6425 41.9963 25.9865 42.4825 25.4593L43.5295 24.324C43.5929 24.2567 43.6679 24.2037 43.7503 24.1679C43.8327 24.1322 43.9208 24.1146 44.0095 24.1159C44.2255 24.122 44.4317 24.2142 44.5887 24.3751C44.7457 24.5359 44.8423 24.7539 44.86 24.9872C44.8677 25.0915 44.8546 25.1964 44.8218 25.2948C44.7889 25.3933 44.737 25.4829 44.6695 25.5578C43.519 26.8065 43.3908 28.687 44.3614 30.0803L44.83 30.7529C44.9682 30.9515 45.028 31.2014 44.9962 31.4477C44.9645 31.693 44.8446 31.9147 44.6627 32.0645C44.6615 32.0655 44.6598 32.0652 44.659 32.0639ZM30.2295 28.1651C30.4178 27.5863 31.2366 27.5865 31.4245 28.1654C31.5563 28.5713 31.2537 28.9876 30.827 28.9876C30.4001 28.9876 30.0975 28.571 30.2295 28.1651Z" fill="black"/>
</g>
<defs>
<filter id="filter0_d_1_99" x="0" y="0" width="68" height="68" filterUnits="userSpaceOnUse" color-interpolation-filters="sRGB">
<feFlood flood-opacity="0" result="BackgroundImageFix"/>
<feColorMatrix in="SourceAlpha" type="matrix" values="0 0 0 0 0 0 0 0 0 0 0 0 0 0 0 0 0 0 127 0" result="hardAlpha"/>
<feOffset dy="4"/>
<feGaussianBlur stdDeviation="2"/>
<feComposite in2="hardAlpha" operator="out"/>
<feColorMatrix type="matrix" values="0 0 0 0 0 0 0 0 0 0 0 0 0 0 0 0 0 0 0.25 0"/>
<feBlend mode="normal" in2="BackgroundImageFix" result="effect1_dropShadow_1_99"/>
<feBlend mode="normal" in="SourceGraphic" in2="effect1_dropShadow_1_99" result="shape"/>
</filter>
</defs>
</svg>
