<svg width="68" height="68" viewBox="0 0 68 68" fill="none" xmlns="http://www.w3.org/2000/svg">
<g filter="url(#filter0_d_1_109)">
<path d="M4 30C4 13.4315 17.4315 0 34 0C50.5685 0 64 13.4315 64 30C64 46.5685 50.5685 60 34 60C17.4315 60 4 46.5685 4 30Z" fill="#03CF5D"/>
<path d="M19 21.6326C19 17.9695 21.9695 15 25.6326 15C27.9882 15 30.1649 16.2458 31.3552 18.2784C34.1411 23.0352 38.9967 31.3217 39.1974 31.6313C39.3904 31.9275 39.4856 31.4543 39.42 31.1069C39.0122 28.9452 38.604 27.7078 38.604 23.9926V20.198C38.604 17.3272 40.9312 15 43.802 15C46.6728 15 49 17.3272 49 20.198V38.3509C49 42.0231 46.0231 45 42.3509 45C40.0251 45 37.871 43.7892 36.6657 41.8C33.9279 37.2817 29.2364 29.5436 29.0378 29.2443C28.8466 28.9545 28.7503 29.4183 28.816 29.7592C29.1328 31.4018 29.396 31.9802 29.396 35.2522V39.802C29.396 42.6728 27.0688 45 24.198 45C21.3272 45 19 42.6728 19 39.802V21.6326Z" fill="white"/>
</g>
<defs>
<filter id="filter0_d_1_109" x="0" y="0" width="68" height="68" filterUnits="userSpaceOnUse" color-interpolation-filters="sRGB">
<feFlood flood-opacity="0" result="BackgroundImageFix"/>
<feColorMatrix in="SourceAlpha" type="matrix" values="0 0 0 0 0 0 0 0 0 0 0 0 0 0 0 0 0 0 127 0" result="hardAlpha"/>
<feOffset dy="4"/>
<feGaussianBlur stdDeviation="2"/>
<feComposite in2="hardAlpha" operator="out"/>
<feColorMatrix type="matrix" values="0 0 0 0 0 0 0 0 0 0 0 0 0 0 0 0 0 0 0.25 0"/>
<feBlend mode="normal" in2="BackgroundImageFix" result="effect1_dropShadow_1_109"/>
<feBlend mode="normal" in="SourceGraphic" in2="effect1_dropShadow_1_109" result="shape"/>
</filter>
</defs>
</svg>
