<svg width="120" height="22" viewBox="0 0 120 22" fill="none" xmlns="http://www.w3.org/2000/svg">
<path d="M4.69453 1.95H17.3245L16.8445 4.23H10.6945L9.52453 9.72H14.6545L14.1745 12.03H9.04453L7.12453 21H0.644531L4.69453 1.95ZM24.3035 7.77C26.6835 7.77 28.4135 8.19 29.4935 9.03C30.6335 9.91 31.2035 11.37 31.2035 13.41C31.2035 14.67 30.9935 15.81 30.5735 16.83C30.1535 17.83 29.5635 18.66 28.8035 19.32C27.2835 20.6 25.0835 21.24 22.2035 21.24C19.7435 21.24 17.9835 20.77 16.9235 19.83C15.7835 18.85 15.2135 17.38 15.2135 15.42C15.2135 14.12 15.4735 12.94 15.9935 11.88C16.5335 10.82 17.3035 9.94 18.3035 9.24C19.7635 8.26 21.7635 7.77 24.3035 7.77ZM22.2635 19.2C22.7635 19.2 23.1935 18.92 23.5535 18.36C23.9335 17.8 24.2335 17.12 24.4535 16.32C24.6735 15.5 24.8335 14.66 24.9335 13.8C25.0535 12.92 25.1135 12.16 25.1135 11.52C25.1135 10.96 25.0535 10.54 24.9335 10.26C24.8335 9.96 24.6035 9.81 24.2435 9.81C23.7035 9.81 23.2335 10.1 22.8335 10.68C22.4535 11.26 22.1435 11.95 21.9035 12.75C21.6635 13.55 21.4835 14.37 21.3635 15.21C21.2635 16.05 21.2135 16.73 21.2135 17.25C21.2135 18.55 21.5635 19.2 22.2635 19.2ZM41.5594 7.77C43.9394 7.77 45.6694 8.19 46.7494 9.03C47.8894 9.91 48.4594 11.37 48.4594 13.41C48.4594 14.67 48.2494 15.81 47.8294 16.83C47.4094 17.83 46.8194 18.66 46.0594 19.32C44.5394 20.6 42.3394 21.24 39.4594 21.24C36.9994 21.24 35.2394 20.77 34.1794 19.83C33.0394 18.85 32.4694 17.38 32.4694 15.42C32.4694 14.12 32.7294 12.94 33.2494 11.88C33.7894 10.82 34.5594 9.94 35.5594 9.24C37.0194 8.26 39.0194 7.77 41.5594 7.77ZM39.5194 19.2C40.0194 19.2 40.4494 18.92 40.8094 18.36C41.1894 17.8 41.4894 17.12 41.7094 16.32C41.9294 15.5 42.0894 14.66 42.1894 13.8C42.3094 12.92 42.3694 12.16 42.3694 11.52C42.3694 10.96 42.3094 10.54 42.1894 10.26C42.0894 9.96 41.8594 9.81 41.4994 9.81C40.9594 9.81 40.4894 10.1 40.0894 10.68C39.7094 11.26 39.3994 11.95 39.1594 12.75C38.9194 13.55 38.7394 14.37 38.6194 15.21C38.5194 16.05 38.4694 16.73 38.4694 17.25C38.4694 18.55 38.8194 19.2 39.5194 19.2ZM50.1886 8.1C50.9286 7.94 51.5786 7.76 52.1386 7.56C52.6986 7.36 53.2086 7.11 53.6686 6.81C54.1486 6.51 54.5986 6.14 55.0186 5.7C55.4586 5.26 55.9286 4.72 56.4286 4.08H59.5186L58.6486 8.1H60.9886L60.5986 10.11H58.2286L56.9986 15.96C56.8986 16.42 56.8186 16.83 56.7586 17.19C56.6986 17.55 56.6686 17.83 56.6686 18.03C56.6686 18.43 56.8086 18.68 57.0886 18.78C57.3886 18.88 57.9386 18.93 58.7386 18.93L58.2886 21C58.1486 21.04 57.9286 21.07 57.6286 21.09C57.3486 21.11 57.0286 21.13 56.6686 21.15C56.3286 21.19 55.9686 21.21 55.5886 21.21C55.2286 21.23 54.9086 21.24 54.6286 21.24C54.1286 21.24 53.6386 21.2 53.1586 21.12C52.6786 21.06 52.2486 20.93 51.8686 20.73C51.4886 20.51 51.1786 20.2 50.9386 19.8C50.7186 19.4 50.6086 18.86 50.6086 18.18C50.6086 17.94 50.6186 17.64 50.6386 17.28C50.6786 16.92 50.7486 16.52 50.8486 16.08L52.1086 10.11H49.7686L50.1886 8.1Z" fill="black"/>
<path d="M64.6066 1.95H71.1166L67.5766 18.48H73.6666L73.1566 21H60.5566L64.6066 1.95ZM80.8193 21H74.7293L77.4593 8.1H83.6093L80.8193 21ZM84.3893 4.17C84.3893 4.63 84.2893 5.03 84.0893 5.37C83.9093 5.71 83.6593 6 83.3393 6.24C83.0393 6.48 82.6893 6.66 82.2893 6.78C81.8893 6.9 81.4793 6.96 81.0593 6.96C80.2593 6.96 79.5893 6.77 79.0493 6.39C78.5093 6.01 78.2393 5.41 78.2393 4.59C78.2393 4.15 78.3293 3.76 78.5093 3.42C78.6893 3.06 78.9293 2.77 79.2293 2.55C79.5493 2.31 79.9093 2.13 80.3093 2.01C80.7293 1.89 81.1593 1.83 81.5993 1.83C82.3793 1.83 83.0393 2.02 83.5793 2.4C84.1193 2.78 84.3893 3.37 84.3893 4.17ZM91.8584 10.02C92.2784 9.62 92.7484 9.25 93.2684 8.91C93.7284 8.63 94.2684 8.37 94.8884 8.13C95.5084 7.89 96.1984 7.77 96.9584 7.77C97.9984 7.77 98.8584 8.04 99.5384 8.58C100.218 9.1 100.558 9.82 100.558 10.74C100.558 11 100.528 11.32 100.468 11.7C100.408 12.06 100.338 12.44 100.258 12.84C100.178 13.24 100.088 13.65 99.9884 14.07C99.9084 14.47 99.8384 14.83 99.7784 15.15L98.5184 21H92.4284L94.0784 13.17C94.1184 12.91 94.1684 12.65 94.2284 12.39C94.2884 12.11 94.3184 11.86 94.3184 11.64C94.3184 11.34 94.2384 11.1 94.0784 10.92C93.9384 10.72 93.7184 10.62 93.4184 10.62C93.0584 10.62 92.7084 10.75 92.3684 11.01C92.0484 11.27 91.7984 11.49 91.6184 11.67L89.6384 21H83.5184L86.2484 8.1H91.1384L91.6784 10.02H91.8584ZM108.806 13.56L115.796 8.1H119.756L113.786 12.99L118.256 21H111.536L108.476 14.97L107.216 21H101.096L105.356 0.839998H111.506L108.806 13.56Z" fill="#46A663"/>
</svg>
